<svg role="img" viewBox="0 0 360 360" xmlns="http://www.w3.org/2000/svg" id="N8n--Streamline-Simple-Icons" height="360" width="360">
  <desc>
    N8n Streamline Icon: https://streamlinehq.com
  </desc>
  <title>n8n</title>
  <path d="M322.1055 85.26299999999999c-17.658 0 -32.4945 12.076500000000001 -36.702 28.4205h-43.432500000000005c-18.525000000000002 0 -34.335 13.395 -37.38 31.665000000000003l-1.557 9.345a18.945 18.945 0 0 1 -18.69 15.832500000000001H169.335c-4.2075000000000005 -16.343999999999998 -19.044 -28.4205 -36.702 -28.4205s-32.4945 12.076500000000001 -36.7005 28.4205H74.595c-4.2075000000000005 -16.343999999999998 -19.044 -28.4205 -36.702 -28.4205C16.9665 142.10549999999998 0 159.07049999999998 0 180s16.965 37.8945 37.8945 37.8945c17.658 0 32.4945 -12.076500000000001 36.702 -28.4205h21.3345c4.2059999999999995 16.343999999999998 19.044 28.4205 36.7005 28.4205 17.658 0 32.4945 -12.076500000000001 36.702 -28.4205h15.011999999999999a18.945 18.945 0 0 1 18.6885 15.832500000000001l1.557 9.345c3.0450000000000004 18.27 18.854999999999997 31.665000000000003 37.38 31.665000000000003h5.537999999999999c4.2059999999999995 16.342499999999998 19.044 28.4205 36.702 28.4205 20.928 0 37.8945 -16.965 37.8945 -37.8945s-16.965 -37.8945 -37.8945 -37.8945c-17.658 0 -32.495999999999995 12.075000000000001 -36.702 28.4205h-5.537999999999999a18.945 18.945 0 0 1 -18.69 -15.832500000000001l-1.5555 -9.345A37.8 37.8 0 0 0 209.41049999999998 180a37.8 37.8 0 0 0 12.315 -22.191000000000003l1.557 -9.345a18.945 18.945 0 0 1 18.6885 -15.832500000000001h43.432500000000005c4.2075000000000005 16.343999999999998 19.044 28.4205 36.702 28.4205 20.928 0 37.8945 -16.965 37.8945 -37.8945s-16.965 -37.8945 -37.8945 -37.8945m0 18.948a18.945 18.945 0 0 1 18.946499999999997 18.946499999999997 18.945 18.945 0 0 1 -18.946499999999997 18.948 18.945 18.945 0 0 1 -18.948 -18.948 18.945 18.945 0 0 1 18.948 -18.946499999999997M37.8945 161.05200000000002A18.945 18.945 0 0 1 56.8425 180a18.945 18.945 0 0 1 -18.948 18.948A18.945 18.945 0 0 1 18.948 180a18.945 18.945 0 0 1 18.946499999999997 -18.948m94.73700000000001 0A18.945 18.945 0 0 1 151.5795 180a18.945 18.945 0 0 1 -18.948 18.948A18.945 18.945 0 0 1 113.685 180a18.945 18.945 0 0 1 18.948 -18.948m151.5795 56.8425a18.945 18.945 0 0 1 18.946499999999997 18.948 18.945 18.945 0 0 1 -18.946499999999997 18.946499999999997 18.945 18.945 0 0 1 -18.948 -18.946499999999997 18.945 18.945 0 0 1 18.948 -18.948" fill="#000000" stroke-width="15"></path>
</svg>