<svg xmlns="http://www.w3.org/2000/svg" width="35" height="35" fill="none" viewBox="0 0 35 35"><path fill="#000" d="M28.058 4.375H6.942a2.567 2.567 0 00-2.567 2.567v21.116a2.566 2.566 0 002.567 2.567h21.116a2.567 2.567 0 002.567-2.567V6.942a2.566 2.566 0 00-2.567-2.567zM19.6 18.958h-3.281v9.392h-2.61v-9.392h-3.282V16.83H19.6v2.13zm8.458 7.7a2.494 2.494 0 01-.977 1.08 4.376 4.376 0 01-1.458.568 8.48 8.48 0 01-1.75.175c-.602 0-1.202-.054-1.794-.16a6.589 6.589 0 01-1.458-.481v-2.494l-.088-.088h.088v.102c.439.343.931.609 1.458.788.526.2 1.085.3 1.648.292.294.005.588-.025.875-.088.216-.05.422-.134.613-.248.148-.09.273-.216.364-.364a1.006 1.006 0 00-.087-1.08 1.807 1.807 0 00-.51-.48 4.541 4.541 0 00-.774-.438l-.977-.409a5.206 5.206 0 01-1.998-1.458 2.917 2.917 0 01-.67-1.94 3.15 3.15 0 01.35-1.545c.235-.416.564-.77.962-1.036a4.198 4.198 0 011.458-.612 7.452 7.452 0 011.736-.19c.532-.007 1.063.027 1.59.102a6.6 6.6 0 011.283.336v2.406a3.54 3.54 0 00-.613-.35c-.232-.1-.47-.183-.714-.248a4.373 4.373 0 00-.715-.146 3.562 3.562 0 00-.67 0 3.335 3.335 0 00-.817.088c-.22.046-.431.124-.628.233-.153.09-.283.215-.379.364a.92.92 0 00-.131.482.904.904 0 00.146.51c.12.166.268.309.437.423.206.164.431.301.671.408l.919.409c.422.174.832.38 1.225.612.346.19.66.43.933.715.268.259.476.572.613.919.14.398.209.817.204 1.24a3.908 3.908 0 01-.365 1.574v.03z"></path></svg>